<svg xmlns="http://www.w3.org/2000/svg" xmlns:xlink="http://www.w3.org/1999/xlink" width="4320" zoomAndPan="magnify" viewBox="0 0 3240 809.999993" height="1080" preserveAspectRatio="xMidYMid meet" version="1.0"><defs><g/></defs><g fill="#ab4154" fill-opacity="1"><g transform="translate(0.000014, 304.032432)"><g><path d="M 30.34375 0 L 30.34375 -252.859375 L 196.5 -252.859375 L 196.5 -204.453125 L 87.421875 -204.453125 L 87.421875 -152.078125 L 186.75 -152.078125 L 186.75 -104.03125 L 87.421875 -104.03125 L 87.421875 -48.765625 L 200.46875 -48.765625 L 200.46875 0 Z M 30.34375 0 "/></g></g></g><g fill="#ab4154" fill-opacity="1"><g transform="translate(282.768481, 304.032432)"><g><path d="M 30.34375 0 L 30.34375 -252.859375 L 79.109375 -252.859375 L 169.046875 -121.734375 L 258.625 -252.859375 L 307.03125 -252.859375 L 307.03125 0 L 249.96875 0 L 249.96875 -152.078125 L 188.5625 -62.484375 L 148.828125 -62.484375 L 87.421875 -152.4375 L 87.421875 0 Z M 30.34375 0 "/></g></g></g><g fill="#ab4154" fill-opacity="1"><g transform="translate(683.970027, 304.032432)"><g/></g></g><g fill="#ab4154" fill-opacity="1"><g transform="translate(832.779194, 304.032432)"><g><path d="M 30.34375 0 L 30.34375 -252.859375 L 143.40625 -252.859375 C 169.164062 -252.859375 189.628906 -246.71875 204.796875 -234.4375 C 219.972656 -222.15625 227.5625 -205.65625 227.5625 -184.9375 C 227.5625 -173.144531 224.910156 -162.429688 219.609375 -152.796875 C 214.316406 -143.160156 206.851562 -135.570312 197.21875 -130.03125 C 209.257812 -124.738281 218.59375 -116.914062 225.21875 -106.5625 C 231.84375 -96.207031 235.15625 -84.285156 235.15625 -70.796875 C 235.15625 -56.585938 231.539062 -44.1875 224.3125 -33.59375 C 217.09375 -23 207.039062 -14.75 194.15625 -8.84375 C 181.269531 -2.945312 166.28125 0 149.1875 0 Z M 87.046875 -45.515625 L 140.515625 -45.515625 C 151.828125 -45.515625 160.613281 -48.160156 166.875 -53.453125 C 173.144531 -58.753906 176.28125 -66.222656 176.28125 -75.859375 C 176.28125 -85.484375 173.144531 -92.945312 166.875 -98.25 C 160.613281 -103.550781 151.828125 -106.203125 140.515625 -106.203125 L 87.046875 -106.203125 Z M 87.046875 -149.90625 L 134.734375 -149.90625 C 145.804688 -149.90625 154.289062 -152.429688 160.1875 -157.484375 C 166.09375 -162.546875 169.046875 -169.648438 169.046875 -178.796875 C 169.046875 -187.953125 166.09375 -195 160.1875 -199.9375 C 154.289062 -204.875 145.804688 -207.34375 134.734375 -207.34375 L 87.046875 -207.34375 Z M 87.046875 -149.90625 "/></g></g></g><g fill="#ab4154" fill-opacity="1"><g transform="translate(1145.51701, 304.032432)"><g><path d="M 30.34375 0 L 30.34375 -252.859375 L 138.34375 -252.859375 C 157.613281 -252.859375 174.351562 -249.363281 188.5625 -242.375 C 202.769531 -235.394531 213.722656 -225.398438 221.421875 -212.390625 C 229.128906 -199.390625 232.984375 -183.859375 232.984375 -165.796875 C 232.984375 -147.253906 228.769531 -131.300781 220.34375 -117.9375 C 211.914062 -104.570312 200.113281 -94.519531 184.9375 -87.78125 L 237.328125 0 L 170.859375 0 L 125.703125 -78.75 L 87.78125 -78.75 L 87.78125 0 Z M 87.046875 -127.15625 L 130.765625 -127.15625 C 144.972656 -127.15625 155.867188 -130.460938 163.453125 -137.078125 C 171.035156 -143.703125 174.828125 -153.15625 174.828125 -165.4375 C 174.828125 -177.71875 171.035156 -187.171875 163.453125 -193.796875 C 155.867188 -200.421875 144.972656 -203.734375 130.765625 -203.734375 L 87.046875 -203.734375 Z M 87.046875 -127.15625 "/></g></g></g><g fill="#ab4154" fill-opacity="1"><g transform="translate(1463.670967, 304.032432)"><g><path d="M 30.34375 0 L 30.34375 -252.859375 L 196.5 -252.859375 L 196.5 -204.453125 L 87.421875 -204.453125 L 87.421875 -152.078125 L 186.75 -152.078125 L 186.75 -104.03125 L 87.421875 -104.03125 L 87.421875 -48.765625 L 200.46875 -48.765625 L 200.46875 0 Z M 30.34375 0 "/></g></g></g><g fill="#ab4154" fill-opacity="1"><g transform="translate(1746.439434, 304.032432)"><g><path d="M 100.421875 0 L 3.25 -252.859375 L 65.015625 -252.859375 L 98.609375 -162.90625 L 128.953125 -82.71875 L 192.53125 -252.859375 L 253.9375 -252.859375 L 156.765625 0 Z M 100.421875 0 "/></g></g></g><g fill="#ab4154" fill-opacity="1"><g transform="translate(2067.482086, 304.032432)"><g><path d="M 30.34375 0 L 30.34375 -252.859375 L 196.5 -252.859375 L 196.5 -204.453125 L 87.421875 -204.453125 L 87.421875 -152.078125 L 186.75 -152.078125 L 186.75 -104.03125 L 87.421875 -104.03125 L 87.421875 -48.765625 L 200.46875 -48.765625 L 200.46875 0 Z M 30.34375 0 "/></g></g></g><g fill="#ab4154" fill-opacity="1"><g transform="translate(0.000014, 745.765596)"><g><path d="M 30.34375 0 L 30.34375 -252.859375 L 79.109375 -252.859375 L 190.71875 -98.96875 L 190.71875 -252.859375 L 247.796875 -252.859375 L 247.796875 0 L 199.03125 0 L 87.421875 -154.96875 L 87.421875 0 Z M 30.34375 0 "/></g></g></g><g fill="#ab4154" fill-opacity="1"><g transform="translate(341.985021, 745.765596)"><g><path d="M 150.265625 5.0625 C 124.015625 5.0625 100.710938 -0.535156 80.359375 -11.734375 C 60.015625 -22.929688 44.125 -38.40625 32.6875 -58.15625 C 21.25 -77.90625 15.53125 -100.660156 15.53125 -126.421875 C 15.53125 -152.191406 21.25 -174.945312 32.6875 -194.6875 C 44.125 -214.4375 60.015625 -229.910156 80.359375 -241.109375 C 100.710938 -252.304688 124.015625 -257.90625 150.265625 -257.90625 C 176.753906 -257.90625 200.113281 -252.304688 220.34375 -241.109375 C 240.570312 -229.910156 256.460938 -214.4375 268.015625 -194.6875 C 279.578125 -174.945312 285.359375 -152.191406 285.359375 -126.421875 C 285.359375 -100.660156 279.578125 -77.90625 268.015625 -58.15625 C 256.460938 -38.40625 240.570312 -22.929688 220.34375 -11.734375 C 200.113281 -0.535156 176.753906 5.0625 150.265625 5.0625 Z M 74.046875 -126.421875 C 74.046875 -111.253906 77.296875 -97.890625 83.796875 -86.328125 C 90.304688 -74.773438 99.28125 -65.742188 110.71875 -59.234375 C 122.15625 -52.734375 135.335938 -49.484375 150.265625 -49.484375 C 165.441406 -49.484375 178.75 -52.734375 190.1875 -59.234375 C 201.625 -65.742188 210.53125 -74.773438 216.90625 -86.328125 C 223.289062 -97.890625 226.484375 -111.253906 226.484375 -126.421875 C 226.484375 -141.597656 223.289062 -154.960938 216.90625 -166.515625 C 210.53125 -178.078125 201.625 -187.109375 190.1875 -193.609375 C 178.75 -200.109375 165.441406 -203.359375 150.265625 -203.359375 C 135.335938 -203.359375 122.15625 -200.109375 110.71875 -193.609375 C 99.28125 -187.109375 90.304688 -178.078125 83.796875 -166.515625 C 77.296875 -154.960938 74.046875 -141.597656 74.046875 -126.421875 Z M 74.046875 -126.421875 "/></g></g></g><g fill="#ab4154" fill-opacity="1"><g transform="translate(706.717808, 745.765596)"><g><path d="M 100.421875 0 L 3.25 -252.859375 L 65.015625 -252.859375 L 98.609375 -162.90625 L 128.953125 -82.71875 L 192.53125 -252.859375 L 253.9375 -252.859375 L 156.765625 0 Z M 100.421875 0 "/></g></g></g><g fill="#ab4154" fill-opacity="1"><g transform="translate(1027.76046, 745.765596)"><g><path d="M 30.34375 0 L 30.34375 -252.859375 L 87.78125 -252.859375 L 87.78125 0 Z M 30.34375 0 "/></g></g></g><g fill="#ab4154" fill-opacity="1"><g transform="translate(1209.788779, 745.765596)"><g><path d="M 30.34375 0 L 30.34375 -252.859375 L 130.40625 -252.859375 C 157.132812 -252.859375 180.488281 -247.554688 200.46875 -236.953125 C 220.457031 -226.359375 235.988281 -211.550781 247.0625 -192.53125 C 258.144531 -173.507812 263.6875 -151.472656 263.6875 -126.421875 C 263.6875 -101.140625 258.144531 -79.046875 247.0625 -60.140625 C 235.988281 -41.234375 220.457031 -26.484375 200.46875 -15.890625 C 180.488281 -5.296875 157.132812 0 130.40625 0 Z M 87.78125 -52.734375 L 129.3125 -52.734375 C 144.25 -52.734375 157.375 -55.800781 168.6875 -61.9375 C 180.007812 -68.082031 188.859375 -76.691406 195.234375 -87.765625 C 201.617188 -98.847656 204.8125 -111.734375 204.8125 -126.421875 C 204.8125 -141.359375 201.617188 -154.300781 195.234375 -165.25 C 188.859375 -176.207031 179.945312 -184.753906 168.5 -190.890625 C 157.0625 -197.035156 143.757812 -200.109375 128.59375 -200.109375 L 87.78125 -200.109375 Z M 87.78125 -52.734375 "/></g></g></g><g fill="#ab4154" fill-opacity="1"><g transform="translate(1552.495956, 745.765596)"><g><path d="M 3.25 0 L 103.671875 -252.859375 L 160.015625 -252.859375 L 260.4375 0 L 199.03125 0 L 182.046875 -43.703125 L 81.640625 -43.703125 L 64.65625 0 Z M 96.453125 -88.859375 L 167.609375 -88.859375 L 131.84375 -181.328125 Z M 96.453125 -88.859375 "/></g></g></g><g fill="#ab4154" fill-opacity="1"><g transform="translate(1880.037815, 745.765596)"><g><path d="M 30.34375 0 L 30.34375 -252.859375 L 130.40625 -252.859375 C 157.132812 -252.859375 180.488281 -247.554688 200.46875 -236.953125 C 220.457031 -226.359375 235.988281 -211.550781 247.0625 -192.53125 C 258.144531 -173.507812 263.6875 -151.472656 263.6875 -126.421875 C 263.6875 -101.140625 258.144531 -79.046875 247.0625 -60.140625 C 235.988281 -41.234375 220.457031 -26.484375 200.46875 -15.890625 C 180.488281 -5.296875 157.132812 0 130.40625 0 Z M 87.78125 -52.734375 L 129.3125 -52.734375 C 144.25 -52.734375 157.375 -55.800781 168.6875 -61.9375 C 180.007812 -68.082031 188.859375 -76.691406 195.234375 -87.765625 C 201.617188 -98.847656 204.8125 -111.734375 204.8125 -126.421875 C 204.8125 -141.359375 201.617188 -154.300781 195.234375 -165.25 C 188.859375 -176.207031 179.945312 -184.753906 168.5 -190.890625 C 157.0625 -197.035156 143.757812 -200.109375 128.59375 -200.109375 L 87.78125 -200.109375 Z M 87.78125 -52.734375 "/></g></g></g><g fill="#ab4154" fill-opacity="1"><g transform="translate(2222.744993, 745.765596)"><g><path d="M 30.34375 0 L 30.34375 -252.859375 L 196.5 -252.859375 L 196.5 -204.453125 L 87.421875 -204.453125 L 87.421875 -152.078125 L 186.75 -152.078125 L 186.75 -104.03125 L 87.421875 -104.03125 L 87.421875 -48.765625 L 200.46875 -48.765625 L 200.46875 0 Z M 30.34375 0 "/></g></g></g><g fill="#ab4154" fill-opacity="1"><g transform="translate(2505.51346, 745.765596)"><g><path d="M 118.484375 5.0625 C 97.285156 5.0625 79.039062 1.570312 63.75 -5.40625 C 48.457031 -12.394531 36.65625 -22.332031 28.34375 -35.21875 C 20.039062 -48.101562 15.890625 -63.210938 15.890625 -80.546875 L 72.25 -80.546875 C 72.25 -68.503906 76.398438 -59.113281 84.703125 -52.375 C 93.015625 -45.632812 104.15625 -42.265625 118.125 -42.265625 C 130.15625 -42.265625 139.660156 -44.609375 146.640625 -49.296875 C 153.628906 -53.992188 157.125 -60.5625 157.125 -69 C 157.125 -77.90625 152.910156 -85.125 144.484375 -90.65625 C 136.054688 -96.195312 122.929688 -100.894531 105.109375 -104.75 C 75.492188 -111.007812 53.582031 -120.519531 39.375 -133.28125 C 25.164062 -146.050781 18.0625 -162.671875 18.0625 -183.140625 C 18.0625 -206.253906 26.488281 -224.492188 43.34375 -237.859375 C 60.195312 -251.222656 83.195312 -257.90625 112.34375 -257.90625 C 132.320312 -257.90625 149.65625 -254.472656 164.34375 -247.609375 C 179.039062 -240.753906 190.421875 -231.125 198.484375 -218.71875 C 206.554688 -206.3125 210.59375 -191.5625 210.59375 -174.46875 L 155.328125 -174.46875 C 155.328125 -185.789062 151.59375 -194.703125 144.125 -201.203125 C 136.65625 -207.703125 126.300781 -210.953125 113.0625 -210.953125 C 101.019531 -210.953125 91.503906 -208.601562 84.515625 -203.90625 C 77.535156 -199.207031 74.046875 -192.644531 74.046875 -184.21875 C 74.046875 -176.507812 77.898438 -170.003906 85.609375 -164.703125 C 93.316406 -159.410156 106.800781 -154.476562 126.0625 -149.90625 C 157.613281 -142.4375 180.367188 -132.441406 194.328125 -119.921875 C 208.296875 -107.398438 215.28125 -91.144531 215.28125 -71.15625 C 215.28125 -47.320312 206.671875 -28.660156 189.453125 -15.171875 C 172.234375 -1.679688 148.578125 5.0625 118.484375 5.0625 Z M 118.484375 5.0625 "/></g></g></g><g fill="#ab4154" fill-opacity="1"><g transform="translate(2800.919623, 745.765596)"><g><path d="M 48.40625 3.96875 C 38.53125 3.96875 30.460938 0.898438 24.203125 -5.234375 C 17.941406 -11.378906 14.8125 -19.144531 14.8125 -28.53125 C 14.8125 -37.925781 17.941406 -45.753906 24.203125 -52.015625 C 30.460938 -58.273438 38.53125 -61.40625 48.40625 -61.40625 C 58.28125 -61.40625 66.347656 -58.273438 72.609375 -52.015625 C 78.867188 -45.753906 82 -37.925781 82 -28.53125 C 82 -19.144531 78.867188 -11.378906 72.609375 -5.234375 C 66.347656 0.898438 58.28125 3.96875 48.40625 3.96875 Z M 48.40625 3.96875 "/></g></g></g><g fill="#ab4154" fill-opacity="1"><g transform="translate(2961.283227, 745.765596)"><g><path d="M 48.40625 3.96875 C 38.53125 3.96875 30.460938 0.898438 24.203125 -5.234375 C 17.941406 -11.378906 14.8125 -19.144531 14.8125 -28.53125 C 14.8125 -37.925781 17.941406 -45.753906 24.203125 -52.015625 C 30.460938 -58.273438 38.53125 -61.40625 48.40625 -61.40625 C 58.28125 -61.40625 66.347656 -58.273438 72.609375 -52.015625 C 78.867188 -45.753906 82 -37.925781 82 -28.53125 C 82 -19.144531 78.867188 -11.378906 72.609375 -5.234375 C 66.347656 0.898438 58.28125 3.96875 48.40625 3.96875 Z M 48.40625 3.96875 "/></g></g></g><g fill="#ab4154" fill-opacity="1"><g transform="translate(3121.646832, 745.765596)"><g><path d="M 48.40625 3.96875 C 38.53125 3.96875 30.460938 0.898438 24.203125 -5.234375 C 17.941406 -11.378906 14.8125 -19.144531 14.8125 -28.53125 C 14.8125 -37.925781 17.941406 -45.753906 24.203125 -52.015625 C 30.460938 -58.273438 38.53125 -61.40625 48.40625 -61.40625 C 58.28125 -61.40625 66.347656 -58.273438 72.609375 -52.015625 C 78.867188 -45.753906 82 -37.925781 82 -28.53125 C 82 -19.144531 78.867188 -11.378906 72.609375 -5.234375 C 66.347656 0.898438 58.28125 3.96875 48.40625 3.96875 Z M 48.40625 3.96875 "/></g></g></g></svg>